<svg xmlns="http://www.w3.org/2000/svg" viewBox="0 0 32 32" fill="none">
  <defs>
    <linearGradient id="bg" x1="0%" y1="0%" x2="100%" y2="100%">
      <stop offset="0%" stop-color="#6366f1"/>
      <stop offset="100%" stop-color="#8b5cf6"/>
    </linearGradient>
    <linearGradient id="add" x1="0%" y1="0%" x2="100%" y2="100%">
      <stop offset="0%" stop-color="#10b981"/>
      <stop offset="100%" stop-color="#34d399"/>
    </linearGradient>
    <linearGradient id="del" x1="0%" y1="0%" x2="100%" y2="100%">
      <stop offset="0%" stop-color="#f43f5e"/>
      <stop offset="100%" stop-color="#fb7185"/>
    </linearGradient>
  </defs>
  <!-- 背景 -->
  <rect width="32" height="32" rx="7" fill="url(#bg)"/>
  <!-- 左侧文档 -->
  <rect x="4" y="6" width="10" height="20" rx="2" fill="white" opacity="0.95"/>
  <rect x="6" y="10" width="6" height="1.5" rx="0.75" fill="url(#del)"/>
  <rect x="6" y="14" width="6" height="1.5" rx="0.75" fill="#e2e8f0"/>
  <rect x="6" y="18" width="4" height="1.5" rx="0.75" fill="#e2e8f0"/>
  <!-- 右侧文档 -->
  <rect x="18" y="6" width="10" height="20" rx="2" fill="white" opacity="0.95"/>
  <rect x="20" y="10" width="6" height="1.5" rx="0.75" fill="#e2e8f0"/>
  <rect x="20" y="14" width="6" height="1.5" rx="0.75" fill="url(#add)"/>
  <rect x="20" y="18" width="5" height="1.5" rx="0.75" fill="#e2e8f0"/>
  <!-- 中间对比符号 -->
  <circle cx="16" cy="16" r="3" fill="white" opacity="0.9"/>
  <path d="M14.5 16H17.5M16 14.5V17.5" stroke="url(#bg)" stroke-width="1.2" stroke-linecap="round"/>
</svg>
